<?xml version="1.0" standalone="no"?>
<!DOCTYPE svg PUBLIC "-//W3C//DTD SVG 20010904//EN"
 "http://www.w3.org/TR/2001/REC-SVG-20010904/DTD/svg10.dtd">
<svg version="1.0" xmlns="http://www.w3.org/2000/svg"
 width="421.000000pt" height="422.000000pt" viewBox="0 0 421.000000 422.000000"
 preserveAspectRatio="xMidYMid meet">
<metadata>
Created by potrace 1.16, written by Peter Selinger 2001-2019
</metadata>
<g transform="translate(0.000000,422.000000) scale(0.100000,-0.100000)"
fill="#000000" stroke="none">
<path d="M358 4191 c-158 -51 -280 -173 -328 -329 -20 -63 -20 -97 -20 -1752
0 -1649 0 -1689 20 -1751 48 -157 172 -281 328 -329 63 -20 96 -20 1751 -20
1656 0 1688 0 1752 19 157 49 281 173 329 329 20 63 20 97 20 1752 0 1655 0
1689 -20 1752 -48 156 -172 280 -329 328 -62 20 -101 20 -1755 19 -1608 0
-1694 -1 -1748 -18z m3457 -205 c70 -27 147 -106 171 -176 18 -53 19 -109 19
-1700 0 -1560 -1 -1648 -18 -1697 -35 -100 -123 -171 -237 -193 -30 -6 -225
-10 -446 -10 l-394 0 0 700 0 700 194 0 193 0 70 350 70 350 -263 0 -264 0 0
84 c0 46 3 104 6 129 10 69 38 77 291 84 l203 6 -2 286 -3 285 -70 30 c-38 16
-122 42 -185 58 -152 40 -393 51 -514 24 -160 -36 -303 -133 -391 -266 -101
-151 -135 -289 -135 -547 l0 -173 -150 0 -150 0 0 -350 0 -350 150 0 150 0 0
-700 0 -700 -794 0 c-488 0 -814 4 -846 10 -114 22 -202 93 -237 193 -17 49
-18 137 -18 1697 0 1560 1 1648 18 1697 35 99 126 174 234 193 27 4 779 7
1673 6 1579 -1 1626 -2 1675 -20z m-809 -896 c32 -6 92 -20 132 -32 l72 -21 0
-113 0 -114 -115 0 c-139 0 -197 -11 -266 -53 -44 -26 -60 -44 -86 -95 l-33
-64 0 -244 0 -244 235 0 c182 0 235 -3 235 -12 -1 -7 -13 -74 -28 -148 l-28
-135 -207 -3 -207 -2 0 -800 0 -800 -200 0 -200 0 0 800 0 800 -150 0 -150 0
0 150 0 150 149 0 148 0 6 258 c6 290 17 360 74 481 57 120 153 203 273 237
56 15 266 18 346 4z"/>
</g>
</svg>
