<?xml version="1.0" standalone="no"?>
<!DOCTYPE svg PUBLIC "-//W3C//DTD SVG 20010904//EN"
 "http://www.w3.org/TR/2001/REC-SVG-20010904/DTD/svg10.dtd">
<svg version="1.0" xmlns="http://www.w3.org/2000/svg"
 width="400.000000pt" height="400.000000pt" viewBox="0 0 400.000000 400.000000"
 preserveAspectRatio="xMidYMid meet">
<metadata>
Created by potrace 1.16, written by Peter Selinger 2001-2019
</metadata>
<g transform="translate(0.000000,400.000000) scale(0.100000,-0.100000)"
fill="#000000" stroke="none">
<path d="M965 3989 c-27 -4 -68 -10 -90 -14 -64 -11 -245 -75 -313 -112 -172
-91 -334 -253 -425 -425 -37 -69 -102 -249 -112 -313 -4 -22 -10 -65 -15 -95
-11 -72 -11 -1978 0 -2050 18 -116 23 -137 47 -210 42 -129 82 -212 146 -304
38 -55 169 -189 237 -241 60 -46 255 -145 287 -145 10 0 23 -4 29 -8 14 -13
88 -32 122 -32 17 0 33 -4 36 -9 13 -21 192 -25 1081 -26 737 0 965 3 1015 13
36 7 85 17 110 22 25 5 60 12 78 16 18 3 35 10 38 15 3 5 15 9 26 9 29 0 220
94 276 136 68 51 187 169 238 236 48 64 144 254 144 286 0 11 4 23 9 26 5 3
12 20 15 38 4 18 11 53 16 78 5 25 15 74 22 110 10 50 13 278 13 1015 -1 889
-5 1068 -26 1081 -5 3 -9 19 -9 36 0 34 -19 108 -32 123 -4 5 -8 18 -8 28 0
32 -99 227 -145 287 -98 127 -245 253 -360 308 -77 37 -111 51 -185 75 -73 24
-94 29 -210 47 -69 10 -1987 10 -2055 -1z m1890 -375 c259 -21 436 -97 569
-245 45 -50 126 -198 126 -231 0 -8 3 -18 7 -22 4 -3 8 -17 10 -29 1 -12 7
-38 13 -57 24 -84 30 -292 30 -1025 0 -733 -6 -941 -30 -1025 -6 -19 -12 -45
-13 -57 -2 -12 -6 -26 -10 -29 -4 -4 -7 -14 -7 -22 0 -27 -63 -147 -108 -205
-24 -32 -70 -79 -101 -103 -55 -45 -186 -114 -213 -114 -8 0 -18 -3 -22 -7 -3
-4 -17 -8 -29 -10 -12 -1 -38 -7 -57 -13 -84 -24 -292 -30 -1025 -30 -733 0
-941 6 -1025 30 -19 6 -45 12 -57 13 -12 2 -26 6 -29 10 -4 4 -14 7 -22 7 -33
0 -181 81 -231 126 -147 132 -215 289 -246 564 -7 59 -7 1672 0 1730 14 125
34 222 62 295 66 179 209 323 387 388 130 48 218 58 556 63 168 2 316 6 330 8
31 5 1066 -4 1135 -10z"/>
<path d="M2990 3321 c-75 -24 -137 -79 -165 -148 -21 -50 -19 -152 4 -205 23
-52 82 -111 135 -132 62 -26 157 -21 217 11 87 45 148 152 136 240 -14 109
-59 178 -145 219 -41 20 -142 28 -182 15z"/>
<path d="M1815 3033 c-33 -8 -79 -18 -103 -23 -43 -10 -69 -20 -172 -67 -205
-93 -390 -278 -483 -483 -48 -103 -57 -129 -66 -172 -5 -24 -17 -74 -25 -113
-20 -90 -20 -250 0 -340 8 -39 20 -89 25 -113 9 -43 19 -71 66 -172 91 -199
283 -389 488 -485 73 -34 90 -41 138 -54 20 -6 52 -15 70 -20 84 -25 236 -35
345 -23 59 7 121 16 137 21 17 5 48 14 70 21 112 32 250 106 348 186 70 57
193 194 224 250 55 98 95 187 113 249 7 22 16 53 21 70 5 16 14 78 21 137 12
110 2 262 -23 348 -6 19 -15 51 -21 70 -69 250 -295 511 -538 623 -101 47
-129 57 -172 66 -24 5 -74 17 -113 25 -86 20 -266 19 -350 -1z m310 -391 c225
-50 403 -209 486 -433 21 -56 24 -81 24 -204 0 -122 -3 -148 -24 -204 -72
-196 -216 -340 -411 -412 -57 -21 -83 -24 -205 -24 -123 0 -148 3 -204 24
-224 83 -383 261 -433 486 -10 49 -13 199 -4 240 16 70 28 112 43 145 78 177
255 331 425 370 29 7 61 15 71 19 24 8 183 3 232 -7z"/>
</g>
</svg>
